# xmcd CD database file
#
# Track frame offsets:
#	150
#	17035
#	32267
#	48785
#	72716
#	97879
#	117228
#	147928
#	163100
#	190508
#	218485
#	224662
#	241824
#	252412
#	280252
#
# Disc length: 4027 seconds
#
# Revision: 2
# Processed by: cddbd v1.4PL0 Copyright (c) Steve Scherf et al.
# Submitted via: CDex 1.40Beta9
#
DISCID=d20fb90f
DTITLE=Richie Arndt and The Bluenatics - Live at the Colosseum
DYEAR=1999
DGENRE=Blues
TTITLE0=Nightlife
TTITLE1=The Bad Thang
TTITLE2=Letter to my girlfriend
TTITLE3=Black Magic Women
TTITLE4=Downtown Train
TTITLE5=Help the poor
TTITLE6=When the train comes
TTITLE7=Sweet little angel
TTITLE8=Love is a fire
TTITLE9=Little Wing
TTITLE10=3rd Stone from the sun
TTITLE11=Bass Solo
TTITLE12=Fire
TTITLE13=Drum Solo
TTITLE14=Texas Flood
EXTD=YEAR: 1999 ID3G: 0
EXTT0=
EXTT1=
EXTT2=
EXTT3=
EXTT4=
EXTT5=
EXTT6=
EXTT7=
EXTT8=
EXTT9=
EXTT10=
EXTT11=
EXTT12=
EXTT13=
EXTT14=
PLAYORDER=
